# xmcd CD database file
#
# Track frame offsets:
#	150
#	24631
#	43108
#	58420
#	76917
#	100626
#	117595
#	135675
#	153577
#	168671
#	203413
#
# Disc length: 3526 seconds
#
# Revision: 0
# Processed by: cddbd v1.5.2PL0 Copyright (c) Steve Scherf et al.
# Submitted via: CDex 1.70beta2
#
DISCID=940dc40b
DTITLE=Acid Drinkers - Rock Is Not Enoughﾅ
DYEAR=2008
DGENRE=Thrash Metal
TTITLE0=Acid Drinkers - Extreme Entertainment Group Of Oddities (E.E.G.O.O.)
TTITLE1=Acid Drinkers - Life Hurts More Than Death
TTITLE2=Acid Drinkers - The Ball And The Line
TTITLE3=Acid Drinkers - Fill Me (In 100%)
TTITLE4=Acid Drinkers - Black Blood Canyon
TTITLE5=Acid Drinkers - When You Say To Me ﾑFuck Youﾒ Say It Louder
TTITLE6=Acid Drinkers - Stray Bullets
TTITLE7=Acid Drinkers - Jennifer And Ben
TTITLE8=Acid Drinkers - Primal Nature
TTITLE9=Acid Drinkers - Hate Unlimited
TTITLE10=Data Track
EXTD=YEAR: 2008
EXTT0=
EXTT1=
EXTT2=
EXTT3=
EXTT4=
EXTT5=
EXTT6=
EXTT7=
EXTT8=
EXTT9=
EXTT10=
PLAYORDER=
